<svg id="Warstwa_1" data-name="Warstwa 1" xmlns="http://www.w3.org/2000/svg" viewBox="0 0 25.01 25"><defs><style>.cls-1{stroke:#000;stroke-miterlimit:10;}</style></defs><title>home</title><path class="cls-1" d="M24.2,12.5,13.2.81,13.14.75a1,1,0,0,0-1.33.06L.77,12.5a1,1,0,0,0-.29.73V23.45a1,1,0,0,0,1,1H9.15a1,1,0,0,0,1-1V16.53A2.46,2.46,0,0,1,12.48,15h.07a2.45,2.45,0,0,1,2.33,1.49v7a1,1,0,0,0,1,1h7.65a1,1,0,0,0,1-1V13.23A1,1,0,0,0,24.2,12.5Zm-.75,10.91H15.9V16.52a1.12,1.12,0,0,0-.09-.44,3.52,3.52,0,0,0-3.27-2.15h-.07A3.5,3.5,0,0,0,9.2,16.07a1.12,1.12,0,0,0-.09.44v6.9H1.45V13.25l11-11.63,11,11.63Z" transform="translate(0.02 0)"/></svg>